<svg width="175" height="19" viewBox="0 0 175 19" fill="none" xmlns="http://www.w3.org/2000/svg">
<path d="M9.375 19V4H3.75C2.69531 4 1.80664 3.63867 1.08398 2.91602C0.361328 2.17383 0 1.28516 0 0.25H22.5C22.5 1.30469 22.1289 2.19336 21.3867 2.91602C20.6445 3.63867 19.7656 4 18.75 4H13.125V19H9.375ZM41.7 19C40.6453 19 39.7566 18.6387 39.034 17.916C38.3113 17.1738 37.95 16.2852 37.95 15.25H60.45C60.45 16.3047 60.0789 17.1934 59.3367 17.916C58.5945 18.6387 57.7156 19 56.7 19H41.7ZM41.7 11.5C40.6453 11.5 39.7566 11.1387 39.034 10.416C38.3113 9.67383 37.95 8.78516 37.95 7.75H60.45C60.45 8.80469 60.0789 9.69336 59.3367 10.416C58.5945 11.1387 57.7156 11.5 56.7 11.5H41.7ZM41.7 4C40.6453 4 39.7566 3.63867 39.034 2.91602C38.3113 2.17383 37.95 1.28516 37.95 0.25H60.45C60.45 1.30469 60.0789 2.19336 59.3367 2.91602C58.5945 3.63867 57.7156 4 56.7 4H41.7ZM75.9 19C75.9 17.9648 76.2613 17.0859 76.984 16.3633C77.7262 15.6211 78.6148 15.25 79.65 15.25H94.65V11.5H75.9V0.25H98.4C98.4 1.30469 98.0289 2.19336 97.2867 2.91602C96.5445 3.63867 95.6656 4 94.65 4H79.65V7.75H98.4V19H75.9ZM113.85 19V0.25H117.6V15.25H136.35C136.35 16.3047 135.979 17.1934 135.237 17.916C134.495 18.6387 133.616 19 132.6 19H113.85ZM151.8 19V7.75H174.3V19H170.55V11.5H155.55V19H151.8ZM155.55 4C154.495 4 153.607 3.63867 152.884 2.91602C152.161 2.17383 151.8 1.28516 151.8 0.25H174.3C174.3 1.30469 173.929 2.19336 173.187 2.91602C172.445 3.63867 171.566 4 170.55 4H155.55Z" fill="white"/>
</svg>
